{"title":"Looters Tooters and Sawn Off Shooters (2014) DVDRip x264 AAC pea","uid":11135072,"size":922231480,"categoryP":"video","categoryS":"movies","magnet":"?xt=urn:btih:42e3b592a4d25bc4d4f985722baab24298be0783&amp;dn=Looters+Tooters+and+Sawn+Off+Shooters+%282014%29+DVDRip+x264+AAC+pea&amp;tr=udp%3A%2F%2Ftracker.openbittorrent.com%3A80&amp;tr=udp%3A%2F%2Fopen.demonii.com%3A1337&amp;tr=udp%3A%2F%2Ftracker.coppersurfer.tk%3A6969&amp;tr=udp%3A%2F%2Fexodus.desync.com%3A6969","seeders":5,"leechers":0,"uploader":"peaSoup","files":-1,"time":1412098492,"description":"A BRUTAL film set in London that highlights the impact gang warfare reaps not only to the guilty of its time but to the innocent generations that follow. This film follows the journey of ex-gangster Charlie Thompson who returns to London after the tragic death of his young nephew Danny which he believes to have been caused by the same callous hands that killed his brother George many years ago.                   &lt;a href=&quot; http://i.imgur.com/v9wxBZp.jpg&quot; rel=&quot;nofollow&quot; target=&quot;_NEW&quot;&gt; http://i.imgur.com/v9wxBZp.jpg&lt;/a&gt;                                                      &lt;a href=&quot; http://i.imgur.com/Cu0QcH6.jpg&quot; rel=&quot;nofollow&quot; target=&quot;_NEW&quot;&gt; http://i.imgur.com/Cu0QcH6.jpg&lt;/a&gt;                                                      &lt;a href=&quot; http://i.imgur.com/h6CjU6d.jpg&quot; rel=&quot;nofollow&quot; target=&quot;_NEW&quot;&gt; http://i.imgur.com/h6CjU6d.jpg&lt;/a&gt;                                                      &lt;a href=&quot; http://i.imgur.com/G5BBbHP.jpg&quot; rel=&quot;nofollow&quot; target=&quot;_NEW&quot;&gt; http://i.imgur.com/G5BBbHP.jpg&lt;/a&gt;                                                      &lt;a href=&quot; http://i.imgur.com/emwz7An.jpg&quot; rel=&quot;nofollow&quot; target=&quot;_NEW&quot;&gt; http://i.imgur.com/emwz7An.jpg&lt;/a&gt;                                                       \nFormat                                   : MPEG-4\nFormat profile                           : Base Media / Version 2\nCodec ID                                 : mp42\nFile size                                : 880 MiB\nDuration                                 : 1h 45mn\nOverall bit rate mode                    : Variable\nOverall bit rate                         : 1 164 Kbps\nEncoded date                             : UTC 2014-09-30 15:06:15\nTagged date                              : UTC 2014-09-30 15:18:12\nWriting application                      : HandBrake 0.9.9 2013052900\n\nVideo\nID                                       : 1\nFormat                                   : AVC\nFormat/Info                              : Advanced Video Codec\nFormat profile                           : &lt;a class=&quot;__cf_email__&quot; href=&quot;/cdn-cgi/l/email-protection&quot; data-cfemail=&quot;115c70787f515d253f21&quot;&gt;[email&amp;#160;protected]&lt;/a&gt;&lt;script cf-hash='f9e31' type=&quot;text/javascript&quot;&gt;\n/* &lt;![CDATA[ */!function(){try{var t=&quot;currentScript&quot;in document?document.currentScript:function(){for(var t=document.getElementsByTagName(&quot;script&quot;),e=t.length;e--;)if(t[e].getAttribute(&quot;cf-hash&quot;))return t[e]}();if(t&amp;&amp;t.previousSibling){var e,r,n,i,c=t.previousSibling,a=c.getAttribute(&quot;data-cfemail&quot;);if(a){for(e=&quot;&quot;,r=parseInt(a.substr(0,2),16),n=2;a.length-n;n+=2)i=parseInt(a.substr(n,2),16)^r,e+=String.fromCharCode(i);e=document.createTextNode(e),c.parentNode.replaceChild(e,c)}}}catch(u){}}();/* ]]&gt; */&lt;/script&gt;\nFormat settings, CABAC                   : Yes\nFormat settings, ReFrames                : 4 frames\nCodec ID                                 : avc1\nCodec ID/Info                            : Advanced Video Coding\nDuration                                 : 1h 45mn\nBit rate                                 : 1 000 Kbps\nWidth                                    : 720 pixels\nHeight                                   : 576 pixels\nDisplay aspect ratio                     : 16:9\nFrame rate mode                          : Constant\nFrame rate                               : 25.000 fps\nStandard                                 : PAL\nColor space                              : YUV\nChroma subsampling                       : 4:2:0\nBit depth                                : 8 bits\nScan type                                : Progressive\nBits/(Pixel*Frame)                       : 0.096\nStream size                              : 755 MiB (86%)\nWriting library                          : x264 core 130 r2273 b3065e6\n\nEncoded date                             : UTC 2014-09-30 15:06:15\nTagged date                              : UTC 2014-09-30 15:18:12\nColor primaries                          : BT.601 PAL\nTransfer characteristics                 : BT.709\nMatrix coefficients                      : BT.601\n\nAudio\nID                                       : 2\nFormat                                   : AAC\nFormat/Info                              : Advanced Audio Codec\nFormat profile                           : LC\nCodec ID                                 : 40\nDuration                                 : 1h 45mn\nBit rate mode                            : Variable\nBit rate                                 : 160 Kbps\nMaximum bit rate                         : 278 Kbps\nChannel(s)                               : 2 channels\nChannel positions                        : Front: L R\nSampling rate                            : 48.0 KHz\nCompression mode                         : Lossy\nStream size                              : 121 MiB (14%)\nLanguage                                 : English\nEncoded date                             : UTC 2014-09-30 15:06:15\nTagged date                              : UTC 2014-09-30 15:18:11","torrent":{"xt":"urn:btih:42e3b592a4d25bc4d4f985722baab24298be0783","amp;dn":"Looters+Tooters+and+Sawn+Off+Shooters+%282014%29+DVDRip+x264+AAC+pea","amp;tr":["udp%3A%2F%2Ftracker.openbittorrent.com%3A80","udp%3A%2F%2Fopen.demonii.com%3A1337","udp%3A%2F%2Ftracker.coppersurfer.tk%3A6969","udp%3A%2F%2Fexodus.desync.com%3A6969"],"infoHash":"42e3b592a4d25bc4d4f985722baab24298be0783","infoHashBuffer":{"type":"Buffer","data":[66,227,181,146,164,210,91,196,212,249,133,114,43,170,178,66,152,190,7,131]},"announce":[],"urlList":[]}}